<?xml version="1.0" encoding="UTF-8"?>
<svg id="Capa_1" data-name="Capa 1" xmlns="http://www.w3.org/2000/svg" viewBox="0 0 3808.94 2834.65">
  <defs>
    <style>
      .cls-1 {
        fill: #e83b3a;
      }
    </style>
  </defs>
  <path class="cls-1" d="M1169.16,573.01c259.95,0,444.77-2.6,554.47-7.77-12.1,165.81-18.14,314.38-18.14,445.64,0,82.06,2.59,145.97,7.77,191.73h-60.89c-43.2-204.69-108.4-351.93-195.62-441.75-87.24-89.81-184.83-134.74-292.78-134.74h-34.98c-48.38,0-83.36,3.89-104.93,11.66-21.6,7.77-36.49,23.11-44.69,46-8.22,22.89-12.31,59.38-12.31,109.46v678.84h27.21c63.03,0,119.83-17.69,170.35-53.12,50.53-35.4,92.18-79.87,125.02-133.44,32.81-53.54,54.83-107.95,66.07-163.23h60.89c-6.93,103.64-10.36,189.58-10.36,257.81l1.3,119.18c0,76.01,5.6,201.67,16.84,376.99h-60.89c-11.23-66.49-33.48-126.3-66.71-179.42-33.26-53.12-75.79-94.99-127.61-125.66-51.82-30.64-110.12-46-174.89-46h-27.21v610.18c0,74.29,7.55,128.48,22.67,162.59,15.1,34.12,42.75,56.8,82.91,68,40.17,11.24,103.42,16.84,189.79,16.84v60.89c-238.37-5.18-420.61-7.77-546.69-7.77-29.37,0-187.85,2.6-475.45,7.77v-53.12c57.01-2.58,98.24-9.48,123.72-20.73,25.46-11.21,42.75-31.94,51.82-62.19,9.07-30.21,13.61-78.57,13.61-145.09V846.36c0-66.49-4.76-114.85-14.25-145.1-9.52-30.21-27-50.94-52.47-62.17-25.48-11.22-66.29-18.14-122.43-20.73v-53.12c205.54,5.18,515.16,7.77,928.87,7.77Z"/>
  <path class="cls-1" d="M2990.51,573.01c259.95,0,444.77-2.6,554.47-7.77-12.1,165.81-18.14,314.38-18.14,445.64,0,82.06,2.59,145.97,7.77,191.73h-60.89c-43.2-204.69-108.4-351.93-195.62-441.75-87.24-89.81-184.83-134.74-292.78-134.74h-34.98c-48.38,0-83.36,3.89-104.93,11.66-21.6,7.77-36.49,23.11-44.69,46-8.22,22.89-12.31,59.38-12.31,109.46v678.84h27.21c63.03,0,119.83-17.69,170.35-53.12,50.53-35.4,92.18-79.87,125.02-133.44,32.81-53.54,54.83-107.95,66.07-163.23h60.89c-6.93,103.64-10.36,189.58-10.36,257.81l1.3,119.18c0,76.01,5.6,201.67,16.84,376.99h-60.89c-11.23-66.49-33.48-126.3-66.71-179.42-33.26-53.12-75.79-94.99-127.61-125.66-51.82-30.64-110.12-46-174.89-46h-27.21v610.18c0,74.29,7.55,128.48,22.67,162.59,15.1,34.12,42.75,56.8,82.91,68,40.17,11.24,103.42,16.84,189.79,16.84v60.89c-238.37-5.18-420.61-7.77-546.69-7.77-29.37,0-187.85,2.6-475.45,7.77v-53.12c57.01-2.58,98.24-9.48,123.72-20.73,25.46-11.21,42.75-31.94,51.82-62.19,9.07-30.21,13.61-78.57,13.61-145.09V846.36c0-66.49-4.76-114.85-14.25-145.1-9.52-30.21-27-50.94-52.47-62.17-25.48-11.22-66.29-18.14-122.43-20.73v-53.12c205.54,5.18,515.16,7.77,928.87,7.77Z"/>
</svg>