<?xml version="1.0" encoding="UTF-8"?>
<svg id="Capa_1" data-name="Capa 1" xmlns="http://www.w3.org/2000/svg" viewBox="0 0 2834.65 2834.65">
  <defs>
    <style>
      .cls-1 {
        fill: #e83b3a;
      }
    </style>
  </defs>
  <path class="cls-1" d="M587.86,877.16s81.09,133.22,139.01,169.13c57.92,35.91,126.13,80.23,193.45,100.78,67.32,20.55,156.65,45.4,199.25,68.35,50.76,27.34,107.52,55.14,147.12,115.84,38.56,59.12,64.76,96.86,71.82,148.28,7.06,51.42,20.85,104.26,23.17,157.54,2.32,53.29-7.12,193.29-13.9,240.95-6.78,47.66-28.1,160.91-27.8,152.91.3-8-35.91,113.52-35.91,113.52,0,0,13.9-129.74,13.9-152.91,0-23.17,6.95-215.46-1.16-262.96-8.11-47.49-28.96-156.39-50.97-203.88-22.01-47.49-67.19-130.9-136.69-166.81-69.5-35.91-192.3-82.25-192.3-82.25l-5.79-2.32s-76.45-23.17-96.15-35.91c-4.99-3.23-10.34-6.53-15.56-9.66-3.99-2.4-8.04,3.01-4.61,6.17,16.41,15.12,35.26,32.3,37.55,33.61,27.59,15.75,159.86,96.15,159.86,96.15,0,0,83.41,55.6,111.21,101.94,27.8,46.34,55.6,89.2,55.6,89.2,0,0-79.93-57.92-157.54-82.25-77.61-24.33-174.34-41.7-244.42-77.61-70.08-35.92-141.33-86.88-161.02-142.48-19.69-55.6-32.44-162.18-30.12-216.62,2.32-54.45,22.01-158.7,22.01-158.7Z"/>
  <path class="cls-1" d="M837.08,1446.61s41.53,68.22,71.19,86.61c29.66,18.39,64.59,41.09,99.07,51.61,34.48,10.52,80.22,23.25,102.04,35,25.99,14,55.06,28.24,75.34,59.32,19.75,30.28,33.16,49.6,36.78,75.93,3.62,26.33,10.68,53.39,11.86,80.68,1.19,27.29-3.65,98.99-7.12,123.39-3.47,24.41-14.39,82.4-14.24,78.31s-18.39,58.14-18.39,58.14c0,0,7.12-66.44,7.12-78.31,0-11.86,3.56-110.34-.59-134.66-4.15-24.32-14.83-80.09-26.1-104.41-11.27-24.32-34.41-67.04-70-85.43-35.59-18.39-98.48-42.12-98.48-42.12l-2.97-1.19s-39.15-11.86-49.24-18.39c-2.55-1.65-5.3-3.34-7.97-4.94-2.05-1.23-4.12,1.54-2.36,3.16,8.41,7.74,18.06,16.54,19.23,17.21,14.13,8.07,81.87,49.24,81.87,49.24,0,0,42.71,28.48,56.95,52.2,14.24,23.73,28.48,45.68,28.48,45.68,0,0-40.93-29.66-80.68-42.12-39.75-12.46-89.28-21.35-125.17-39.75-35.89-18.39-72.37-44.49-82.46-72.97-10.08-28.48-16.61-83.05-15.42-110.93,1.19-27.88,11.27-81.27,11.27-81.27Z"/>
  <path class="cls-1" d="M1384.27,1110.69l34.75-231.1s37.51,232.86,37.37,232.88c0,0,0-.03,0-.04-.78-3.84,40-39.68,58.21-59.95,14.53-16.17,21.44-29.94,32.15-51.26,4.42-8.81,7.19-15.62,7.82-24.33.6-8.4-2.56-33.57-1.74-25.2h0c-4-12.15-10.48-30.47-19.98-52.13-13.79-31.45-26.76-53.54-33.01-64.29-18.16-31.25-43.08-75.99-79.93-145.09,0,0-99.91,187.66-99.91,184.19,0-.03,0-.05,0-.05,0,0,0,0,0,0,0,.01-30.33,50.86-31.28,92.14-.49,21.33,6.62,50.19,38.23,85.14,18.53,18.53,37.07,37.07,55.6,55.6"/>
  <path class="cls-1" d="M1123.63,776.2l158.12,51.26c-7.76,9.79-56.81,73.78-40.83,159.86,12.43,66.96,56.5,105.76,69.5,116.42-15.12.33-43.64-1.29-72.11-18.24-35.02-20.86-55.88-51.16-59.08-73.85-6.65-47.2-5.89-48.16-22.59-122.5,0,0-2.47-11.01-33.01-112.94h0Z"/>
  <path class="cls-1" d="M1717.03,786.63l-158.12,51.26c7.76,9.79,56.81,73.78,40.83,159.86-12.43,66.96-56.5,105.76-69.5,116.42,15.12.33,43.64-1.29,72.11-18.24,35.02-20.86,55.88-51.16,59.08-73.85,6.65-47.2,5.89-48.16,22.59-122.5,0,0,2.47-11.01,33.01-112.94h0Z"/>
  <path class="cls-1" d="M2246.79,870.21s-81.09,133.22-139.01,169.13c-57.92,35.91-126.13,80.23-193.45,100.78-67.32,20.55-156.65,45.4-199.25,68.35-50.76,27.34-107.52,55.14-147.12,115.84-38.56,59.12-64.76,96.86-71.82,148.28-7.06,51.42-20.85,104.26-23.17,157.54-2.32,53.29,7.12,193.29,13.9,240.95,6.78,47.66,28.1,160.91,27.8,152.91-.3-8,35.91,113.52,35.91,113.52,0,0-13.9-129.74-13.9-152.91s-6.95-215.46,1.16-262.96c8.11-47.49,28.96-156.39,50.97-203.88,22.01-47.49,67.19-130.9,136.69-166.81,69.5-35.91,192.3-82.25,192.3-82.25l5.79-2.32s76.45-23.17,96.15-35.91c4.99-3.23,10.34-6.53,15.56-9.66,3.99-2.4,8.04,3.01,4.61,6.17-16.41,15.12-35.26,32.3-37.55,33.61-27.59,15.75-159.86,96.15-159.86,96.15,0,0-83.41,55.6-111.21,101.94-27.8,46.34-55.6,89.2-55.6,89.2,0,0,79.93-57.92,157.54-82.25,77.61-24.33,174.34-41.7,244.42-77.61,70.08-35.92,141.33-86.88,161.02-142.48,19.69-55.6,32.44-162.18,30.12-216.62s-22.01-158.7-22.01-158.7Z"/>
  <path class="cls-1" d="M1997.57,1439.66s-41.53,68.22-71.19,86.61c-29.66,18.39-64.59,41.09-99.07,51.61-34.48,10.52-80.22,23.25-102.04,35-25.99,14-55.06,28.24-75.34,59.32-19.75,30.28-33.16,49.6-36.78,75.93-3.62,26.33-10.68,53.39-11.86,80.68-1.19,27.29,3.65,98.99,7.12,123.39,3.47,24.41,14.39,82.4,14.24,78.31-.15-4.09,18.39,58.14,18.39,58.14,0,0-7.12-66.44-7.12-78.31s-3.56-110.34.59-134.66c4.15-24.32,14.83-80.09,26.1-104.41,11.27-24.32,34.41-67.04,70-85.43,35.59-18.39,98.48-42.12,98.48-42.12l2.97-1.19s39.15-11.86,49.24-18.39c2.55-1.65,5.3-3.34,7.97-4.94,2.05-1.23,4.12,1.54,2.36,3.16-8.41,7.74-18.06,16.54-19.23,17.21-14.13,8.07-81.87,49.24-81.87,49.24,0,0-42.71,28.48-56.95,52.2-14.24,23.73-28.48,45.68-28.48,45.68,0,0,40.93-29.66,80.68-42.12,39.75-12.46,89.28-21.35,125.17-39.75,35.89-18.39,72.37-44.49,82.46-72.97,10.08-28.48,16.61-83.05,15.42-110.93-1.19-27.88-11.27-81.27-11.27-81.27Z"/>
</svg>